<svg width="512" height="512" viewBox="0 0 512 512" fill="none" xmlns="http://www.w3.org/2000/svg">
<ellipse cx="255.305" cy="117.5" rx="104" ry="104.5"/>
<path fill-rule="evenodd" clip-rule="evenodd" d="M54 434.859C54 323.406 144.351 233.055 255.805 233.055C367.258 233.055 457.609 323.406 457.609 434.859V498.999H352.275V467.19C352.275 413.911 309.084 370.72 255.805 370.72C202.526 370.72 159.335 413.911 159.335 467.19V498.999H54V434.859ZM255.805 362.377C283.164 362.377 305.343 339.964 305.343 312.316C305.343 284.669 283.164 262.256 255.805 262.256C228.445 262.256 206.266 284.669 206.266 312.316C206.266 339.964 228.445 362.377 255.805 362.377Z"/>
</svg>
